<svg xmlns="http://www.w3.org/2000/svg" viewBox="0 0 500 500"><g id="Floor"><path id="Floor-2" d="M108.81,288.72c-78.88,45.54-78.88,119.38,0,164.93,78.89,45.54,206.78,45.54,285.66,0,78.88-45.54,78.88-119.38,0-164.93-78.89-45.54-206.78-45.54-285.66,0Z" style="fill:#fafafa;"></path></g><g id="Clouds"><path id="Cloud" d="M475.76,164.91c.08-.33-.03-.73-.44-1.2-.68-.78-3.17-1.28-4.22-1.04-1.11-2.19-5.59-4.27-8.15-2.42-.1-2.66-2.53-4.73-5.94-5.26-1.14-.18-3.89-.33-5.2,.75-.01-3.84-4.21-6.51-8.98-6.96-5.62-.53-9.61,1.97-9.74,6.4-3.67-1.51-7.55-.54-7.26,3.5-.96-1.1-4.53-1.07-5.82-.76-1.36,.32-2.73,1.55-3.2,2.73-.38,.96-.4,1.4-.33,2.07-2.14-.7-7.01-1.13-8.23,.83-.33,.53-.4,.97-.3,1.35h67.82Z" style="fill:#f0f0f0;"></path><path id="Cloud-2" d="M445.17,235.41c.11-.47-.05-1.03-.63-1.7-.97-1.11-4.51-1.82-6.01-1.48-1.59-3.12-7.95-6.08-11.61-3.44-.14-3.78-3.6-6.74-8.46-7.49-1.63-.25-5.54-.47-7.4,1.07-.02-5.47-6-9.27-12.79-9.91-8-.75-13.67,2.81-13.86,9.11-5.23-2.15-10.75-.77-10.33,4.98-1.36-1.57-6.45-1.52-8.28-1.09-1.93,.46-3.89,2.2-4.56,3.88-.54,1.36-.57,1.99-.47,2.94-3.05-1-9.98-1.61-11.72,1.19-.46,.75-.57,1.38-.43,1.93h96.54Z" style="fill:#f5f5f5;"></path><path id="Cloud-3" d="M115.07,222c.1-.46-.04-1.01-.56-1.67-.86-1.09-4.02-1.79-5.36-1.45-1.42-3.06-7.1-5.96-10.36-3.37-.13-3.71-3.21-6.61-7.55-7.34-1.45-.25-4.95-.46-6.61,1.05-.01-5.36-5.36-9.09-11.42-9.72-7.14-.74-12.21,2.76-12.38,8.94-4.67-2.11-9.6-.76-9.23,4.89-1.21-1.54-5.76-1.5-7.39-1.07-1.72,.45-3.47,2.16-4.07,3.81-.48,1.33-.51,1.95-.42,2.89-2.72-.98-8.92-1.58-10.46,1.16-.41,.73-.51,1.36-.38,1.89H115.07Z" style="fill:#f5f5f5;"></path></g><g id="Heart_2"><g id="Heart"><path id="Heart-2" d="M241.5,274.13l-44.79-26.82c-1.84-1.31-4.2-2.84-6.9-4.6-30.48-20.02-101.85-66.9-101.85-146.43,0-41.23,34.12-74.65,76.21-74.65,36.99,0,67.83,25.82,74.75,60.06,6.92-34.24,37.76-60.06,74.75-60.06,42.09,0,76.21,33.42,76.21,74.65,0,80.2-68.93,127.31-98.36,147.43-1.96,1.34-3.73,2.54-5.23,3.61l-44.79,26.82Z" style="fill:#BA68C8;"></path><path id="Heart-3" d="M241.5,274.13l-44.79-26.82c-1.84-1.31-4.2-2.84-6.9-4.6-30.48-20.02-101.85-66.9-101.85-146.43,0-41.23,34.12-74.65,76.21-74.65,36.99,0,67.83,25.82,74.75,60.06,6.92-34.24,37.76-60.06,74.75-60.06,42.09,0,76.21,33.42,76.21,74.65,0,80.2-68.93,127.31-98.36,147.43-1.96,1.34-3.73,2.54-5.23,3.61l-44.79,26.82Z" style="fill:#fff; opacity:.93;"></path></g></g><g id="Shadows"><ellipse id="Shadow" cx="274.58" cy="433.14" rx="61.82" ry="35.69" style="fill:#e0e0e0;"></ellipse><ellipse id="Shadow-2" cx="198.25" cy="405.2" rx="74.3" ry="42.9" style="fill:#e0e0e0;"></ellipse><ellipse id="Shadow-3" cx="308.81" cy="386.07" rx="67.5" ry="38.97" style="fill:#e0e0e0;"></ellipse></g><g id="Plants"><g id="Plants-2"><g><path d="M170.16,334.1c1.22-1.72,2.38-3.47,3.29-5.37,1.87-3.89,2.62-8.19,3.15-12.44,.44-3.19,.52-8.4,1.57-13.07-2.52,2.64-5.26,5.43-7.26,8.58-2.94,4.64-5.25,9.65-6.04,15.12-.66,4.62-.03,9.32,.6,13.95,1.4-2.35,3.1-4.53,4.68-6.76Zm-16.73-9.3c-2.68-3.71-4.8-7.84-6.24-12.19-.41,.85-.46,1.83-.49,2.78-.08,2.21-.17,4.43-.12,6.64,.04,1.85,.18,3.69,.48,5.52,.59,3.5,1.77,7.72,4.15,10.43,2.4,2.73,5.89,4.56,8.66,6.89,1.18-3.64-.11-8.92-1.41-12.37-1.06-2.84-3.27-5.26-5.04-7.7Zm13.8,25.05c2.36-.25,6,.04,8.47-.53,8.27-1.23,15.46-7.77,17.41-15.91-8.08,6.18-20.27,7.09-25.88,16.44Zm4.38,16.56c-6.66,7.93-9.72,17.24-10.25,27.28,2.9-6.64,12.19-8.95,18.59-19.35,3.22-5.24,3.77-16.12,3.77-16.12,0,0-7.45,2.65-12.11,8.19Z" style="fill:#BA68C8;"></path><path d="M170.16,334.1c1.22-1.72,2.38-3.47,3.29-5.37,1.87-3.89,2.62-8.19,3.15-12.44,.44-3.19,.52-8.4,1.57-13.07-2.52,2.64-5.26,5.43-7.26,8.58-2.94,4.64-5.25,9.65-6.04,15.12-.66,4.62-.03,9.32,.6,13.95,1.4-2.35,3.1-4.53,4.68-6.76Zm-16.73-9.3c-2.68-3.71-4.8-7.84-6.24-12.19-.41,.85-.46,1.83-.49,2.78-.08,2.21-.17,4.43-.12,6.64,.04,1.85,.18,3.69,.48,5.52,.59,3.5,1.77,7.72,4.15,10.43,2.4,2.73,5.89,4.56,8.66,6.89,1.18-3.64-.11-8.92-1.41-12.37-1.06-2.84-3.27-5.26-5.04-7.7Zm13.8,25.05c2.36-.25,6,.04,8.47-.53,8.27-1.23,15.46-7.77,17.41-15.91-8.08,6.18-20.27,7.09-25.88,16.44Zm4.38,16.56c-6.66,7.93-9.72,17.24-10.25,27.28,2.9-6.64,12.19-8.95,18.59-19.35,3.22-5.24,3.77-16.12,3.77-16.12,0,0-7.45,2.65-12.11,8.19Z" style="fill:#fff; opacity:.3;"></path><path d="M180.2,364.01c-2.94,5.4-6.49,10.63-10.35,15.75-3.8,5.04-7.96,9.19-10.42,14.64-.34,.76-.66,1.73-.96,2.7,.02-2.91,.06-5.81,.23-8.67,.1-2.53,.22-5.06,.42-7.58,.47-6,1.24-11.97,2.19-17.92,.29-1.77,.59-3.54,.91-5.31,.17-.92,.34-1.84,.52-2.75,.1-.5,.12-1.97,.46-2.33,.08-.08,.15-.17,.23-.25,.42-.39,.88-.72,1.37-1.01,.96-.59,2-1.03,3.04-1.46,1.62-.67,3.24-1.34,4.86-2,1-.4,1.99-.8,2.99-1.19,.15-.06,.06-.49-.1-.43-2.84,.99-5.76,1.77-8.56,2.86-1.09,.43-2.17,.95-3.13,1.63-.12,.09-.25,.19-.38,.29,1.53-7.42,3.31-14.79,5.23-22.11,.04-.14-.16-.46-.26-.23-2.71,6.63-4.9,13.51-6.62,20.48-.09-.57-.19-1.15-.31-1.71-.45-2.1-1.11-4.21-2.04-6.14-.99-2.05-2.29-3.81-3.73-5.56-1.47-1.78-2.92-3.64-3.85-5.77-.12-.28-.36,.03-.29,.23,1.43,3.96,4.34,7.17,6.12,10.97,.91,1.94,1.68,3.94,2.19,6.02,.26,1.05,.45,2.11,.59,3.18,.11,.86,.28,1.72,.44,2.57-.35,1.57-.68,3.14-.98,4.72-.48,2.5-.89,5.01-1.28,7.52-.67-1.69-1.56-3.31-2.64-4.77-2.08-2.81-4.72-5.26-6.45-8.31-.11-.19-.22,.05-.17,.18,1.4,3.2,3.4,5.97,5.31,8.87,1.44,2.2,2.78,4.55,3.52,7.08-.7,5.08-1.25,10.18-1.59,15.3-.57,8.46-.62,16.94-.64,25.41-.02,8.44-.13,11.35-.87,19.76-.27,3.08-.87,6.15-1.36,9.2-.48,3.01-1.05,5.94-1.73,8.91-.29,1.27-.58,2.53-.87,3.8-.24,1.05,2.96,.87,3.61,.67,.4-.12,.83-.32,.98-.71,.07-.18,.07-.38,.08-.58,.02-2.7,.14-4.88,.31-7.57,.17-2.58,.37-4.88,.67-7.96,.31-3.16,.6-6.8,.76-9.72,.4-7.04,.75-9.75,.77-17.74l.04-.07c-.05-.55-.06-1.1,.02-1.61-.02,.02-.04,.04-.05,.06,.02-1.12,.02-2.25,.03-3.37,.13-.46,.25-.91,.4-1.36,.43-1.35,.87-2.69,1.42-4.03,1.09-2.64,2.49-5.24,4.2-7.73,1.79-2.6,3.85-5.12,5.75-7.68,1.91-2.58,3.77-5.19,5.43-7.86,1.88-3,3.49-6.06,4.71-9.21,.03-.07-.09-.21-.15-.1Z" style="fill:#37474f;"></path></g><g><path d="M199.16,390.02c-2.25,1.02-4.52,2.01-6.77,3.05-1.14,.53-2.28,1.06-3.35,1.71-.3,.18-.6,.38-.89,.58-1.79,1.26-3.27,2.96-4.32,4.89-.52,.96-.94,1.98-1.24,3.04-.15,.55-.28,1.1-.37,1.66-.03,.17,0,1.33-.07,1.4,1.65-1.41,3.8-2.08,5.9-2.61,2.72-.68,5.46-1.34,7.87-2.83,2.18-1.35,4.04-3.18,5.49-5.28,1.84-2.68,3.16-5.7,4.08-8.83-1.98,1.39-4.16,2.24-6.35,3.22Zm-6.72,18.86c-1.74,.55-3.47,1.21-4.97,2.26-.32,.23-.63,.47-.93,.73-1.71,1.48-3.01,3.42-4.27,5.31,.97-.23,1.98,.03,2.96,.21,2.24,.41,4.62,.53,6.81-.2,1.92-.64,3.63-1.85,5-3.33,1.82-1.97,3.07-4.41,4-6.93,.23-.61,.3-1.17,.36-1.81-.98,1.02-2.24,1.74-3.55,2.25-1.76,.68-3.62,.95-5.41,1.51Zm-15.19-13.36c-5.67,5.12-7.35,15.51,0,19.89,2.1-5.06,.04-10.24-.39-15.39-.05-1.51,.09-3.02,.4-4.5Zm2.09,34.76c6.94-.11,11.26-.1,15.15-6.93-3.73,1.65-8.1,.59-11.69,2.7-1.69,.86-2.61,2.66-3.46,4.23Z" style="fill:#BA68C8;"></path><path d="M199.16,390.02c-2.25,1.02-4.52,2.01-6.77,3.05-1.14,.53-2.28,1.06-3.35,1.71-.3,.18-.6,.38-.89,.58-1.79,1.26-3.27,2.96-4.32,4.89-.52,.96-.94,1.98-1.24,3.04-.15,.55-.28,1.1-.37,1.66-.03,.17,0,1.33-.07,1.4,1.65-1.41,3.8-2.08,5.9-2.61,2.72-.68,5.46-1.34,7.87-2.83,2.18-1.35,4.04-3.18,5.49-5.28,1.84-2.68,3.16-5.7,4.08-8.83-1.98,1.39-4.16,2.24-6.35,3.22Zm-6.72,18.86c-1.74,.55-3.47,1.21-4.97,2.26-.32,.23-.63,.47-.93,.73-1.71,1.48-3.01,3.42-4.27,5.31,.97-.23,1.98,.03,2.96,.21,2.24,.41,4.62,.53,6.81-.2,1.92-.64,3.63-1.85,5-3.33,1.82-1.97,3.07-4.41,4-6.93,.23-.61,.3-1.17,.36-1.81-.98,1.02-2.24,1.74-3.55,2.25-1.76,.68-3.62,.95-5.41,1.51Zm-15.19-13.36c-5.67,5.12-7.35,15.51,0,19.89,2.1-5.06,.04-10.24-.39-15.39-.05-1.51,.09-3.02,.4-4.5Zm2.09,34.76c6.94-.11,11.26-.1,15.15-6.93-3.73,1.65-8.1,.59-11.69,2.7-1.69,.86-2.61,2.66-3.46,4.23Z" style="fill:#fff; opacity:.3;"></path><path d="M182.76,417.36c-.78,.2-1.53,.47-2.3,.71-.59,3.68-1.21,7.36-1.83,11.03-.07,.41-.13,.81-.2,1.22,.2-.16,.39-.33,.6-.47,.55-.39,1.13-.71,1.76-.94,.32-.12,.64-.23,.99-.26,.31-.03,.62-.06,.93-.07,.22-.01,.26,.45,.05,.5-.62,.15-1.23,.4-1.81,.66-.54,.24-1.07,.51-1.56,.84-.42,.28-.81,.61-1.16,.97-.38,2.38-.76,4.76-1.24,7.12-.5,2.47-1.09,4.89-1.28,7.39,0,.07-.01,.15-.05,.21-.05,.09-.15,.13-.25,.17-.97,.36-2.09,.3-3.02-.17-.07-.03-.14-.08-.17-.15-.03-.09,.01-.18,.06-.26,.98-1.8,1.89-4.25,2.45-6.23,.82-2.88,1.07-5.22,1.51-8.04-.1-.61-.27-1.2-.5-1.78-.25-.64-.55-1.26-.87-1.87-.16-.3-.34-.6-.5-.9-.24-.46-.34-.9-.42-1.41,0-.04,.02-.15,.09-.13,.79,.24,1.2,1.02,1.63,1.67,.38,.57,.71,1.17,.99,1.79,.53-3.21,1.07-6.41,1.62-9.63-.13-.52-.24-1.04-.41-1.55-.35-1.01-.89-1.92-1.33-2.89-.47-1.05-.87-2.07-1.08-3.2-.19-1.04-.5-2.07-.32-3.14,.05-.29,.29,0,.27,.18-.14,1.16,.84,2.22,1.37,3.17,.49,.88,1,1.74,1.47,2.62,.22,.41,.44,.82,.64,1.25,.49-3,.93-6.15,2.28-8.87,.8-1.6,1.87-3.08,3.19-4.28,.79-.72,1.66-1.31,2.57-1.84,1-.59,2.04-.91,3.11-1.34,.11-.04,.17,.21,.09,.26-.78,.55-1.5,1.18-2.29,1.71-.85,.57-1.68,1.19-2.45,1.87-1.23,1.09-2.13,2.42-2.68,3.97-1.1,3.04-1.55,6.23-2.04,9.41,1.43-.54,3.06-.65,4.53-.91,1.62-.28,3.26-.66,4.69-1.49,.2-.11,.3,.34,.17,.44-1.38,1.13-3.04,1.64-4.76,2.04-.86,.2-1.71,.39-2.56,.61Z" style="fill:#37474f;"></path></g><g><path d="M113.65,370.09c-.41-5.97,.76-11.98-.79-17.88-.88-5.05-2.9-9.8-3.59-14.89-8.49,10.13-7.93,26.06,4.39,32.77Zm12.27-18.39c-1.9,5.9-6.28,11.2-6.65,17.53-.2,2.34,.03,4.7,.83,7.07,8.35-6.86,8.28-14.79,5.82-24.6Zm-10.81,27.84c-4.41-6.03-7.21-9.28-15.22-11.58-2.15-.62-5.73-1.15-7.96-1.41,1.66,1.76,2.47,3.12,4.15,5.37,4.64,6.36,11.7,7.92,19.03,7.62Zm18.03-12.18c-.09,5.23-4.3,9.52-5.23,14.66-.54,2.86-.8,6.74,.92,9.14,1.51-1.03,2.91-2.75,4.23-4.09,5.23-5.5,3.58-13.72,.08-19.71Zm8.41,22.46c-1.09,3.6-4.79,6.09-6,9.55-.82,1.18-1.83,11.41,1,7.87,6.2-3.93,8.5-10.8,5-17.42Zm-20.11,14.3c-5.07-2.25-11.42-1.03-15.9-4.75,2.11,5.34,6.14,10.33,11.64,12.36,4.18,1.73,8.71-.19,12.96,.24-2.25-3.04-5.17-6.23-8.7-7.85Z" style="fill:#BA68C8;"></path><path d="M113.65,370.09c-.41-5.97,.76-11.98-.79-17.88-.88-5.05-2.9-9.8-3.59-14.89-8.49,10.13-7.93,26.06,4.39,32.77Zm12.27-18.39c-1.9,5.9-6.28,11.2-6.65,17.53-.2,2.34,.03,4.7,.83,7.07,8.35-6.86,8.28-14.79,5.82-24.6Zm-10.81,27.84c-4.41-6.03-7.21-9.28-15.22-11.58-2.15-.62-5.73-1.15-7.96-1.41,1.66,1.76,2.47,3.12,4.15,5.37,4.64,6.36,11.7,7.92,19.03,7.62Zm18.03-12.18c-.09,5.23-4.3,9.52-5.23,14.66-.54,2.86-.8,6.74,.92,9.14,1.51-1.03,2.91-2.75,4.23-4.09,5.23-5.5,3.58-13.72,.08-19.71Zm8.41,22.46c-1.09,3.6-4.79,6.09-6,9.55-.82,1.18-1.83,11.41,1,7.87,6.2-3.93,8.5-10.8,5-17.42Zm-20.11,14.3c-5.07-2.25-11.42-1.03-15.9-4.75,2.11,5.34,6.14,10.33,11.64,12.36,4.18,1.73,8.71-.19,12.96,.24-2.25-3.04-5.17-6.23-8.7-7.85Z" style="fill:#fff; opacity:.3;"></path><path d="M108.43,375.62c2.8,1.1,5.44,2.53,8.09,3.95,.51,.27,1.06,.57,1.61,.9-.04-.07-.09-.15-.13-.22-2.41-4.05-4.7-8.17-6.38-12.58-.84-2.22-1.57-4.5-2.19-6.79-.64-2.37-.96-4.77-1.36-7.18-.05-.29,.27-.49,.35-.14,.51,2.19,1.3,4.31,1.99,6.44,.68,2.09,1.46,4.15,2.32,6.18,1.67,3.94,3.61,7.73,5.79,11.4,.29,.49,.59,.98,.88,1.46,0-.34,0-.67,0-.96-.02-1.34,.12-2.69,.37-4.01,.23-1.25,.56-2.47,.99-3.67,.39-1.1,.82-2.6,1.72-3.39,.14-.12,.24,.11,.22,.22-.19,1.14-.87,2.24-1.22,3.35-.38,1.17-.65,2.38-.81,3.6-.16,1.22-.21,2.45-.19,3.68,.02,1.05,.3,2.19,.17,3.24,1.58,2.61,3.14,5.22,4.56,7.93,.64,1.22,1.24,2.47,1.83,3.72,.01-.05,.03-.11,.04-.16,.34-1.44,.91-2.8,1.52-4.14,1.39-3.08,3-6.09,3.52-9.47,.03-.17,.19-.04,.19,.08-.06,2.93-1.11,5.74-2.11,8.46-.54,1.47-1.03,2.95-1.43,4.46-.2,.74-.33,1.48-.42,2.23-.05,.38-.07,.76-.14,1.12,.07,.15,.13,.3,.19,.45,.27,.41,.47,.86,.57,1.34,.4,.96,.8,1.92,1.18,2.89,1.36,3.52,2.55,7.09,3.58,10.71,.22-1.36,.62-2.69,1.06-3.94,.48-1.33,1.07-2.61,1.79-3.83,.69-1.17,1.48-2.72,2.55-3.58,.13-.11,.18,.22,.15,.29-.55,1.24-1.38,2.33-1.92,3.58-.52,1.2-.99,2.43-1.39,3.68-.68,2.16-1.07,4.39-1.49,6.61-.1,.56,.43,1.69,.57,2.26,.2,.82,.39,1.65,.58,2.47,.38,1.72,.73,3.45,1.05,5.19,.75,4.1,1.44,8.23,2.16,12.35,.04,.24,.08,.49,.03,.74-.1,.41-.47,.71-.87,.84-.98,.32-2.14,.22-3.1-.11-.13-.04-.26-.1-.34-.21-.12-.16-.09-.39-.05-.59,1.26-6.49,.27-13.07-1.24-19.41-.37-.37-.69-.8-1-1.2-.44-.57-.86-1.16-1.33-1.71-.91-1.05-1.98-1.91-3.16-2.64-1.05-.66-2.2-1.17-3.4-1.51-.57-.16-1.14-.31-1.72-.41-.61-.11-1.26-.12-1.81-.41-.08-.04-.12-.25-.02-.3,1.22-.64,3.08-.3,4.36,0,1.41,.33,2.8,.87,4.04,1.63,1.14,.7,2.14,1.59,3.03,2.58-1.01-3.74-2.19-7.44-3.55-11.07-.81-2.16-1.69-4.28-2.63-6.37-.73-.57-1.56-1.04-2.41-1.4-1.18-.49-2.43-.82-3.66-1.18-1.21-.35-2.28-.82-3.41-1.37-.14-.07-.17-.46,.03-.4,1.42,.39,2.94,.5,4.39,.78,1.34,.26,2.67,.55,3.92,1.09-1.41-2.95-2.93-5.85-4.53-8.7-.59-.69-1.04-1.48-1.76-2.07-1.01-.83-2.21-1.39-3.34-2.03-2.4-1.35-4.78-2.68-7.03-4.27-.14-.1-.1-.56,.13-.47Z" style="fill:#37474f;"></path></g><g><path d="M384.27,308.08c-1.85-3.23-4.47-6.14-6.88-8.89,.85,4.71,.7,9.92,1,13.13,.34,4.27,.9,8.6,2.6,12.57,.83,1.94,1.91,3.74,3.05,5.51,1.49,2.3,3.09,4.55,4.38,6.96,.83-4.59,1.67-9.26,1.21-13.91-.55-5.5-2.64-10.61-5.38-15.37Zm23.14,16.78c.39-1.81,.6-3.64,.72-5.49,.15-2.21,.16-4.43,.17-6.64,0-.95,0-1.93-.37-2.8-1.63,4.28-3.92,8.31-6.77,11.9-1.87,2.36-4.18,4.68-5.37,7.47-1.44,3.39-2.96,8.61-1.94,12.3,2.87-2.2,6.43-3.88,8.95-6.51,2.5-2.6,3.86-6.77,4.6-10.24Zm-46.26,3.85c1.59,8.21,8.48,15.06,16.7,16.65,2.44,.67,6.09,.54,8.44,.9-5.19-9.59-17.33-11.02-25.14-17.55Zm45.99,34.01c-6.58,7.99-9.54,17.34-9.97,27.38,2.84-6.67,12.1-9.08,18.39-19.54,3.17-5.27,3.61-16.16,3.61-16.16,0,0-7.43,2.73-12.03,8.32Z" style="fill:#BA68C8;"></path><path d="M384.27,308.08c-1.85-3.23-4.47-6.14-6.88-8.89,.85,4.71,.7,9.92,1,13.13,.34,4.27,.9,8.6,2.6,12.57,.83,1.94,1.91,3.74,3.05,5.51,1.49,2.3,3.09,4.55,4.38,6.96,.83-4.59,1.67-9.26,1.21-13.91-.55-5.5-2.64-10.61-5.38-15.37Zm23.14,16.78c.39-1.81,.6-3.64,.72-5.49,.15-2.21,.16-4.43,.17-6.64,0-.95,0-1.93-.37-2.8-1.63,4.28-3.92,8.31-6.77,11.9-1.87,2.36-4.18,4.68-5.37,7.47-1.44,3.39-2.96,8.61-1.94,12.3,2.87-2.2,6.43-3.88,8.95-6.51,2.5-2.6,3.86-6.77,4.6-10.24Zm-46.26,3.85c1.59,8.21,8.48,15.06,16.7,16.65,2.44,.67,6.09,.54,8.44,.9-5.19-9.59-17.33-11.02-25.14-17.55Zm45.99,34.01c-6.58,7.99-9.54,17.34-9.97,27.38,2.84-6.67,12.1-9.08,18.39-19.54,3.17-5.27,3.61-16.16,3.61-16.16,0,0-7.43,2.73-12.03,8.32Z" style="fill:#fff; opacity:.3;"></path><path d="M415.71,360.23c-2.88,5.43-6.39,10.7-10.19,15.86-3.75,5.08-7.87,9.27-10.27,14.74-.33,.76-.64,1.72-.92,2.68,.28-7.17,.48-14.36,.32-21.53-.12-5.13,.26-1.89-.22-7,.85-2.5,2.29-4.79,3.82-6.92,2.03-2.82,4.14-5.5,5.69-8.63,.06-.12-.05-.36-.16-.18-1.87,2.98-4.61,5.31-6.81,8.02-1.14,1.41-2.1,2.99-2.84,4.65-.28-2.53-.58-5.05-.95-7.57-.23-1.59-.49-3.17-.77-4.76,.2-.85,.41-1.69,.56-2.55,.18-1.06,.42-2.11,.72-3.15,.6-2.06,1.45-4.02,2.45-5.92,1.94-3.72,4.99-6.8,6.59-10.69,.08-.2-.14-.52-.28-.24-1.02,2.09-2.55,3.88-4.09,5.6-1.51,1.68-2.89,3.38-3.97,5.39-1.02,1.89-1.77,3.97-2.31,6.05-.14,.56-.28,1.13-.39,1.7-1.42-7.04-3.31-14.01-5.73-20.75-.08-.23-.3,.07-.27,.21,1.6,7.4,3.06,14.84,4.26,22.32-.12-.1-.25-.21-.37-.3-.93-.72-1.98-1.29-3.06-1.76-2.75-1.22-5.64-2.12-8.43-3.23-.16-.06-.27,.36-.12,.43,.98,.43,1.96,.87,2.94,1.32,1.59,.73,3.18,1.47,4.77,2.21,1.02,.48,2.04,.96,2.98,1.59,.47,.32,.92,.67,1.32,1.07,.08,.08,.15,.17,.22,.26,.32,.37,.28,1.84,.36,2.34,.14,.92,.27,1.85,.4,2.77,.24,1.78,.47,3.56,.68,5.34,.7,5.98,.5,3.63,.71,9.65,.09,2.53,.1,5.06,.09,7.59,.09,5.57-.3,11.31-.45,16.92-.02-.02-.03-.04-.05-.06,.05,.52,.02,1.06-.05,1.61l.04,.07c-.32,7.98-.09,10.7,0,17.76,.04,2.93,.17,6.57,.34,9.75,.17,3.08,.27,5.39,.32,7.98,.06,2.7,.08,4.88-.02,7.57,0,.19-.01,.39,.05,.58,.14,.39,.56,.61,.95,.75,.64,.23,3.83,.55,3.63-.51-.24-1.28-.47-2.56-.71-3.83-.55-3-.99-5.95-1.34-8.98-.35-3.07-.82-6.16-.96-9.25-.35-7.78-.36-10.87-.09-17.92,.22-.73,.4-1.47,.62-2.2,.42-1.35,.84-2.7,1.38-4.04,1.07-2.65,2.44-5.26,4.12-7.77,1.76-2.62,3.8-5.16,5.67-7.74,1.89-2.6,3.71-5.23,5.35-7.91,1.85-3.02,3.43-6.1,4.61-9.26,.02-.07-.1-.21-.16-.1Z" style="fill:#37474f;"></path></g><g><path d="M351.11,379.45c-.41-5.97,.76-11.98-.79-17.88-.88-5.05-2.9-9.8-3.59-14.89-8.49,10.13-7.93,26.06,4.39,32.77Zm12.27-18.39c-1.9,5.9-6.28,11.2-6.65,17.53-.2,2.34,.03,4.7,.83,7.07,8.35-6.86,8.28-14.79,5.82-24.6Zm-10.81,27.84c-4.41-6.03-7.21-9.28-15.22-11.58-2.15-.62-5.73-1.15-7.96-1.41,1.66,1.76,2.47,3.12,4.15,5.37,4.64,6.36,11.7,7.92,19.03,7.62Zm18.03-12.18c-.09,5.23-4.3,9.52-5.23,14.66-.54,2.86-.8,6.74,.92,9.14,1.51-1.03,2.91-2.75,4.23-4.09,5.23-5.5,3.58-13.72,.08-19.71Zm8.41,22.46c-1.09,3.6-4.79,6.09-6,9.55-.82,1.18-1.83,11.41,1,7.87,6.2-3.93,8.5-10.8,5-17.42Zm-20.11,14.3c-5.07-2.25-11.42-1.03-15.9-4.75,2.11,5.34,6.14,10.33,11.64,12.36,4.18,1.73,8.71-.19,12.96,.24-2.25-3.04-5.17-6.23-8.7-7.85Z" style="fill:#BA68C8;"></path><path d="M351.11,379.45c-.41-5.97,.76-11.98-.79-17.88-.88-5.05-2.9-9.8-3.59-14.89-8.49,10.13-7.93,26.06,4.39,32.77Zm12.27-18.39c-1.9,5.9-6.28,11.2-6.65,17.53-.2,2.34,.03,4.7,.83,7.07,8.35-6.86,8.28-14.79,5.82-24.6Zm-10.81,27.84c-4.41-6.03-7.21-9.28-15.22-11.58-2.15-.62-5.73-1.15-7.96-1.41,1.66,1.76,2.47,3.12,4.15,5.37,4.64,6.36,11.7,7.92,19.03,7.62Zm18.03-12.18c-.09,5.23-4.3,9.52-5.23,14.66-.54,2.86-.8,6.74,.92,9.14,1.51-1.03,2.91-2.75,4.23-4.09,5.23-5.5,3.58-13.72,.08-19.71Zm8.41,22.46c-1.09,3.6-4.79,6.09-6,9.55-.82,1.18-1.83,11.41,1,7.87,6.2-3.93,8.5-10.8,5-17.42Zm-20.11,14.3c-5.07-2.25-11.42-1.03-15.9-4.75,2.11,5.34,6.14,10.33,11.64,12.36,4.18,1.73,8.71-.19,12.96,.24-2.25-3.04-5.17-6.23-8.7-7.85Z" style="fill:#fff; opacity:.3;"></path><path d="M345.9,384.99c2.8,1.1,5.44,2.53,8.09,3.95,.51,.27,1.06,.57,1.61,.9-.04-.07-.09-.15-.13-.22-2.41-4.05-4.7-8.17-6.38-12.58-.84-2.22-1.57-4.5-2.19-6.79-.64-2.37-.96-4.77-1.36-7.18-.05-.29,.27-.49,.35-.14,.51,2.19,1.3,4.31,1.99,6.44,.68,2.09,1.46,4.15,2.32,6.18,1.67,3.94,3.61,7.73,5.79,11.4,.29,.49,.59,.98,.88,1.46,0-.34,0-.67,0-.96-.02-1.34,.12-2.69,.37-4.01,.23-1.25,.56-2.47,.99-3.67,.39-1.1,.83-2.6,1.72-3.39,.14-.12,.24,.11,.22,.22-.19,1.14-.87,2.24-1.22,3.35-.38,1.17-.65,2.38-.81,3.6-.16,1.22-.21,2.45-.19,3.68,.02,1.05,.3,2.19,.17,3.24,1.58,2.61,3.14,5.22,4.56,7.93,.64,1.22,1.24,2.47,1.83,3.72,.01-.05,.03-.11,.04-.16,.34-1.44,.91-2.8,1.52-4.14,1.39-3.08,3-6.09,3.52-9.47,.03-.17,.19-.04,.19,.08-.06,2.93-1.11,5.74-2.11,8.46-.54,1.47-1.03,2.95-1.43,4.46-.2,.74-.33,1.48-.42,2.23-.05,.38-.07,.76-.14,1.12,.07,.15,.13,.3,.19,.45,.27,.41,.47,.86,.57,1.34,.4,.96,.8,1.92,1.18,2.89,1.36,3.52,2.55,7.09,3.58,10.71,.22-1.36,.62-2.69,1.06-3.94,.48-1.33,1.07-2.61,1.79-3.83,.69-1.17,1.48-2.72,2.55-3.58,.13-.11,.18,.22,.15,.29-.55,1.24-1.38,2.33-1.92,3.58-.52,1.2-.99,2.43-1.39,3.68-.68,2.16-1.07,4.39-1.49,6.61-.1,.56,.43,1.69,.57,2.26,.2,.82,.39,1.65,.58,2.47,.38,1.72,.73,3.45,1.05,5.19,.75,4.1,1.44,8.23,2.16,12.35,.04,.24,.08,.49,.03,.73-.1,.41-.47,.71-.87,.84-.98,.32-2.14,.22-3.1-.11-.13-.04-.26-.1-.34-.21-.12-.16-.09-.39-.05-.59,1.26-6.49,.27-13.07-1.24-19.41-.37-.37-.69-.8-1-1.2-.44-.57-.86-1.16-1.33-1.71-.91-1.05-1.98-1.91-3.16-2.64-1.05-.66-2.2-1.17-3.4-1.51-.57-.16-1.14-.31-1.72-.41-.61-.11-1.26-.12-1.81-.41-.08-.04-.12-.25-.02-.3,1.22-.64,3.08-.3,4.36,0,1.41,.33,2.8,.87,4.04,1.63,1.14,.7,2.14,1.59,3.03,2.58-1.01-3.74-2.19-7.44-3.55-11.07-.81-2.16-1.69-4.28-2.63-6.37-.73-.57-1.56-1.04-2.41-1.4-1.18-.49-2.43-.82-3.66-1.18-1.21-.35-2.28-.82-3.41-1.37-.14-.07-.17-.46,.03-.4,1.42,.39,2.94,.5,4.39,.78,1.34,.26,2.67,.55,3.92,1.09-1.41-2.95-2.93-5.85-4.53-8.7-.58-.69-1.04-1.48-1.76-2.07-1.01-.83-2.21-1.39-3.34-2.03-2.4-1.35-4.78-2.68-7.03-4.27-.14-.1-.1-.56,.13-.47Z" style="fill:#37474f;"></path></g></g></g><g id="Birds"><g id="Birds-2"><g id="Bird"><g><path d="M337.12,125.45c7.04,2.63,13.01,16.23,10.79,33.73-1.88,14.83-12.4,29.57-29.24,41,0,0,2.02-70.05,18.46-74.73Z" style="fill:#BA68C8;"></path><path d="M337.12,125.45c7.04,2.63,13.01,16.23,10.79,33.73-1.88,14.83-12.4,29.57-29.24,41,0,0,2.02-70.05,18.46-74.73Z" style="fill:#fff; opacity:.4;"></path></g><g><path d="M343.06,150.97h0c-1.01-17.19-5.77-34.27-16.37-47.76-4.03-5.13-9.9-9.72-15.44-13.16-9.16-5.7-22.24-6.34-31.1,.22-2.43,1.8-4.69,3.89-6.39,6.39-1.91,2.82-3.47,6.58-2.52,9.98,.6,2.16,1.55,4.17,2.22,6.28,.9,2.84,2.47,5.48,4.68,7.48,2.39,2.17,4.56,4.03,6.29,6.75,2.22,3.48,2.56,7.69,1.36,11.64-.5,1.64-1.03,3.23-1.5,4.81-5.62,7.16-12.1,16.81-16.52,31.37-8.03,26.48-9.4,46.3-4.1,48,5.3,1.71,17.08-.17,43.22-14.69,26.14-14.52,37.69-41.77,36.17-57.33Z" style="fill:#BA68C8;"></path><path d="M343.06,150.97h0c-1.01-17.19-5.77-34.27-16.37-47.76-4.03-5.13-9.9-9.72-15.44-13.16-9.16-5.7-22.24-6.34-31.1,.22-2.43,1.8-4.69,3.89-6.39,6.39-1.91,2.82-3.47,6.58-2.52,9.98,.6,2.16,1.55,4.17,2.22,6.28,.9,2.84,2.47,5.48,4.68,7.48,2.39,2.17,4.56,4.03,6.29,6.75,2.22,3.48,2.56,7.69,1.36,11.64-.5,1.64-1.03,3.23-1.5,4.81-5.62,7.16-12.1,16.81-16.52,31.37-8.03,26.48-9.4,46.3-4.1,48,5.3,1.71,17.08-.17,43.22-14.69,26.14-14.52,37.69-41.77,36.17-57.33Z" style="fill:#fff; opacity:.2;"></path><g><path d="M344.51,147.72c-.3,.72-.87,1.35-1.55,1.75-.84,.53-1.86,.67-2.73,.21,.61,2.86,0,6.02-1.89,8.26-1.9,2.22-5.16,3.31-7.93,2.37-.41-.14-.87-.31-1.26-.16-.3,.13-.5,.43-.68,.7-1.78,2.69-4.33,5.02-7.46,5.78-3.14,.77-6.85-.37-8.43-3.18-1.53,1.38-3.68,1.89-5.74,2.03-2.91,.21-6.28-.48-7.72-3.01-.67-1.18-.82-2.57-.9-3.92-.11-2.06-.1-4.11,.04-6.17,.28-4.14,1.09-8.26,.9-12.39-.28-5.85-3.44-10.57-8.68-13.24-.33-.16-.67-.33-1.01-.47-2.33-1.04-4.83-1.66-7.36-2.1-1.22-1.31-2.56-2.49-3.96-3.77-2.22-2-3.78-4.65-4.67-7.49-.57-1.75-1.32-3.42-1.89-5.19,2.02-4.28,6.83-7.57,11.2-8.45,1.51-.3,3.2-.36,4.41,.6,1.24,.95,1.35,2.49,2.09,3.75,.88,1.51,2.23,2.67,3.77,3.5,4.56,2.42,9.92,2.44,14.88,3.45,5.41,1.09,10.73,2.8,15.69,5.24,5.78,2.86,11.11,6.75,15.39,11.57,1.39,1.58,2.67,3.24,3.82,5,.65,1.02,1.29,2.13,1.31,3.34,.01,1.21-.82,2.52-2.03,2.59,1.11,1.17,1.76,2.7,2.24,4.23,.53,1.68,.85,3.55,.17,5.17Z" style="fill:#BA68C8;"></path><path d="M344.51,147.72c-.3,.72-.87,1.35-1.55,1.75-.84,.53-1.86,.67-2.73,.21,.61,2.86,0,6.02-1.89,8.26-1.9,2.22-5.16,3.31-7.93,2.37-.41-.14-.87-.31-1.26-.16-.3,.13-.5,.43-.68,.7-1.78,2.69-4.33,5.02-7.46,5.78-3.14,.77-6.85-.37-8.43-3.18-1.53,1.38-3.68,1.89-5.74,2.03-2.91,.21-6.28-.48-7.72-3.01-.67-1.18-.82-2.57-.9-3.92-.11-2.06-.1-4.11,.04-6.17,.28-4.14,1.09-8.26,.9-12.39-.28-5.85-3.44-10.57-8.68-13.24-.33-.16-.67-.33-1.01-.47-2.33-1.04-4.83-1.66-7.36-2.1-1.22-1.31-2.56-2.49-3.96-3.77-2.22-2-3.78-4.65-4.67-7.49-.57-1.75-1.32-3.42-1.89-5.19,2.02-4.28,6.83-7.57,11.2-8.45,1.51-.3,3.2-.36,4.41,.6,1.24,.95,1.35,2.49,2.09,3.75,.88,1.51,2.23,2.67,3.77,3.5,4.56,2.42,9.92,2.44,14.88,3.45,5.41,1.09,10.73,2.8,15.69,5.24,5.78,2.86,11.11,6.75,15.39,11.57,1.39,1.58,2.67,3.24,3.82,5,.65,1.02,1.29,2.13,1.31,3.34,.01,1.21-.82,2.52-2.03,2.59,1.11,1.17,1.76,2.7,2.24,4.23,.53,1.68,.85,3.55,.17,5.17Z" style="fill:#fff; opacity:.6;"></path></g><path d="M320.53,132.8c1.18,1.3,2.96,2.03,4.73,1.79,1.85-.26,3.39-1.56,4.06-3.26,1.04,.78,2.47,1.28,3.37,.34,.21-.22-.02-.68-.31-.7-1.1-.05-2.19-.02-2.88-1.03-.24-.35-1.12-.69-1.25-.05-.32,1.56-1.45,2.9-3.01,3.34-1.66,.47-3.43-.35-4.35-1.77-.18-.28-1.06-.77-1.17-.14-.35,2.19-2.45,3.26-4.53,2.67-.07-.02-.08,.13-.03,.16,1.94,1.25,4.24,.45,5.36-1.37Zm13.15,7.06c0-.25-.29-.41-.32-.08-.02,.2-.32,.68-.43,.88-.19,.35-.46,.66-.76,.92-.67,.57-1.61,.96-2.5,.94-1.69-.03-2.99-1.46-3.62-2.9-.23-.53-1.31-.83-1.45-.07-.35,1.94-1.46,3.81-3.28,4.69-1.99,.96-4.5,.23-5.73-1.58-.19-.29-.59-.15-.48,.2,.74,2.46,3.61,3.55,5.96,3,2.21-.52,3.77-2.28,4.57-4.33,.97,1.23,2.34,2.13,3.95,2.28,1.06,.1,2.17-.22,2.97-.92,.41-.36,.75-.81,.97-1.32,.29-.65,.16-1.02,.14-1.72Zm-20.78,9.34c-.76,1.86-1.61,3.73-3.72,4.33-1.76,.51-3.69-.53-3.68-2.48,0-.65-.97-.93-1.36-.47-1.37,1.64-5.18,1.35-5.85-.81-.04-.12-.18-.19-.23-.03-.48,1.81,1.67,2.81,3.1,3,1.11,.15,2.23,0,3.17-.52,.69,1.81,2.74,2.96,4.7,2.56,2.55-.51,4.2-3.02,4.02-5.56,0-.1-.11-.14-.15-.04Z" style="fill:#BA68C8; opacity:.3;"></path><path d="M308.42,106.57c-2.78-.22-5.79-.32-9.17-1.08-1.9-.43-3.51-2.08-3.87-4.02-.44-2.38,.75-3.52-.44-4.99-.48-.6-1.19-.97-1.92-1.21-3.07-1.02-6.37,.27-9.51,1.04-2.88,.7-6.44,.65-8.37-1.46,1.48-1.72,3.2-3.23,5.02-4.58,2.36-1.75,4.67-2.86,7.84-3.74,.16-.06,.21-.06,.21-.07,9.08-2.25,16.48-.75,23.64,3.21,9.51,5.26,14.24,5.81,16.44,6.25,4.01,.8,2.44,3.72-1.14,4.12,3.44,2.66,5.5,2.43,5.23,4.43-.26,2-2.73,2.23-2.73,2.23,0,0,3.05,4.14,6.26,11.95-.76-1.85-4.02-3.92-5.61-5.07-1.95-1.41-4.07-2.58-6.32-3.45-4.85-1.89-10.21-3.13-15.4-3.55-.06,0-.12,0-.18-.01Z" style="fill:#37474f;"></path><g><path d="M281.85,114.41c-.56,1.89-1.65,3.76-4.98,4.56-3.32,.8-7.8-.51-10.76-.48,.12-.15,2.04-2.18,5.55-3.17s10.18-.9,10.18-.9Z" style="fill:#37474f;"></path><path d="M274.58,104.24c-3.05-.65-4.94,.74-7.39,3.33-2.45,2.6-4.01,8.43-3.13,10.39,.88,1.96,4.14-.78,7.31-1.58,3.17-.79,8.22-1.17,10.96-2.13,2.74-.96,2.31-2.44,.73-2.65s-3.58-.8-4.52-2.69c-.96-1.92-.91-4.03-3.96-4.67Z" style="fill:#455a64;"></path><path d="M271.64,106.23c.67,.07,1.35,.55,1.41,1.23,.05,.58-.35,1.11-.79,1.5-1.13,1-2.61,1.52-3.8,2.44-.77,.6-1.57,1.19-2.1,2.03-.25,.39-.89,1.54-1.22,.66-.24-.65,.15-1.42,.37-2.04,.46-1.3,.99-2.37,1.82-3.47,1.02-1.35,2.51-2.54,4.31-2.35Z" style="fill:#fff; opacity:.2;"></path><path d="M274.58,104.24c-2.35-.73-4.72,.4-6.39,2.05-2.71,2.31-4.18,5.79-4.56,9.28-.07,1.09-.2,2.93,1.18,3.25,.67,.1,1.24-.13,1.79-.34,1.62-.66,3.1-1.59,4.77-2.1-1.71,.35-3.26,1.2-4.89,1.79-.53,.18-1.1,.36-1.59,.25-1.04-.3-.85-1.95-.79-2.81,.44-3.36,1.81-6.73,4.37-9.04,1.58-1.68,3.76-2.83,6.12-2.34h0Z" style="fill:#37474f;"></path></g><g><path d="M283.63,100.79c1.37-1.13,3.01-1.02,3.92-.45,.91,.57,1.31,.95,1.94,1.2,.5,.2,.65,.73,.45,1.21s-.08,1.03-.44,2.34c-.28,1.03-1.55,2.12-3.14,2.22-1.34,.09-2.24-.38-2.93-.63-.69-.25-.9-.09-1.17-.35-.2-.2-.16-.54-.03-1.27,.13-.73-.44-2.77,1.41-4.29Z" style="fill:#263238;"></path><path d="M291,99.04s-.04-.04-.06-.04c-.08-.02-.15,.06-.2,.13-.51,.72-1.37,1.17-2.24,1.19-.04-.11,.02-.23,.07-.34,.21-.44,.41-.93,.3-1.41,0-.03-.02-.07-.05-.08-.04-.02-.09,.02-.11,.06-.17,.22-.32,.45-.53,.63-.34,.29-.78,.41-1.21,.48-.43,.08-.88,.11-1.29,.26-.13,.05-.26,.11-.34,.21-.6,.71,1.93,1.18,2.27,1.27,.36,.1,.72,.19,1.08,.18,.62-.02,1.21-.34,1.66-.77,.45-.43,.81-1.03,.72-1.64,0-.05-.02-.09-.05-.13Z" style="fill:#263238;"></path><path d="M282.98,103.55c.09,.82,.83,1.4,1.65,1.31,.82-.09,1.4-.83,1.31-1.65-.09-.82-.83-1.4-1.65-1.31-.82,.09-1.4,.83-1.31,1.65Z" style="fill:#455a64;"></path><path d="M284.68,102.52c.14,.42,.59,.64,1.01,.5s.64-.59,.5-1.01c-.14-.42-.59-.64-1.01-.5-.42,.14-.64,.59-.5,1.01Z" style="fill:#fafafa;"></path></g></g><g><path d="M281.34,220.44c-7.34,6.53-8.82,12.12-7.28,25.3s4.34,22.16,1.54,29.75c-2.8,7.59-7.46,9.78-7.46,9.78,0,0,.47,20.17-2.92,30.35-3.39,10.18-10.58,15.57-10.38-15.97-4.21-2.43-3.79-13.98-3.19-18.57-4.19-1-6.34-16.37,2.02-47.52,8.36-31.15,27.23-18.45,27.68-13.12Z" style="fill:#BA68C8;"></path><path d="M281.34,220.44c-7.34,6.53-8.82,12.12-7.28,25.3s4.34,22.16,1.54,29.75c-2.8,7.59-7.46,9.78-7.46,9.78,0,0,.47,20.17-2.92,30.35-3.39,10.18-10.58,15.57-10.38-15.97-4.21-2.43-3.79-13.98-3.19-18.57-4.19-1-6.34-16.37,2.02-47.52,8.36-31.15,27.23-18.45,27.68-13.12Z" style="fill:#fff; opacity:.7;"></path><g style="opacity:.3;"><path d="M251.65,281.08c1.65-12.69,3.54-26.62,4.62-39.38-2.78,12.94-4.59,26.13-4.62,39.38Zm16.76-42.71c-.91,15.62-1,31.27-.27,46.9,.91-15.61,1-31.28,.27-46.9Zm-6.58-3.36c-3.93,21.32-6.77,42.94-6.99,64.64,1.82-21.25,4.75-43.41,6.99-64.64Z" style="fill:#BA68C8;"></path></g></g><g><path d="M291.22,138.12c-14.97,5.26-25.05,26.09-31.41,46.7-6.36,20.61-7.02,33.76-3.73,37.49-3.29,12.72-4.17,19.29,1.97,14.47,6.14-4.82,21.84-25.98,31.57-49.77,0,0-2.41,15.13,.66,16.01,3.07,.88,6.9-5.26,10.36-22.14,3.46-16.88,5.54-48.02-9.42-42.75Z" style="fill:#BA68C8;"></path><path d="M291.22,138.12c-14.97,5.26-25.05,26.09-31.41,46.7-6.36,20.61-7.02,33.76-3.73,37.49-3.29,12.72-4.17,19.29,1.97,14.47,6.14-4.82,21.84-25.98,31.57-49.77,0,0-2.41,15.13,.66,16.01,3.07,.88,6.9-5.26,10.36-22.14,3.46-16.88,5.54-48.02-9.42-42.75Z" style="fill:#fff; opacity:.5;"></path><path d="M290.72,184.57c5.78-11.85,10.44-24.91,10.33-38.24-1.58,13.18-6.1,25.73-10.33,38.24Zm-19.63-4.36c-5.6,12.78-10.83,25.8-14.19,39.36,8.93-26.37,20.23-52.02,34.32-76.05-8.03,11.43-14.33,24-20.13,36.68Zm-11.79,10.56c4.72-9.87,12.46-24.18,17.68-33.95-7.45,10.38-13.67,21.8-17.68,33.95Z" style="fill:#BA68C8; opacity:.3;"></path></g></g><g id="Stick"><g><g><path d="M310.16,350.97c-.26-6.25-.42-11.24,2.69-17.94,3.11-6.69,10.86-11.92,14.94-15.26,4.08-3.34,7.45-7.47,7.8-10.59,1.56,6.9,4.81,18.74-2.97,30.88-7.03,10.97-15.75,9.47-22.46,12.92Z" style="fill:#BA68C8;"></path><path d="M327.79,317.78c-4.08,3.34-11.83,8.56-14.94,15.26-3.11,6.7-2.95,11.69-2.69,17.94,3.01-3.59,12.69-9.03,19.88-23.33,2.55-5.06,5.47-12.78,5.54-20.46-.34,3.13-3.72,7.25-7.8,10.59Z" style="fill:#fff; opacity:.2;"></path></g><path d="M308.45,349.53c-4.57,3.49-8.73,9.04-8.73,9.04v8.68c3.02-5.66,9.92-14.9,13.91-18.37,3.99-3.47,11.39-9.81,16.41-21.23-7.52,13.45-17.02,18.4-21.59,21.89Z" style="fill:#37474f;"></path></g><g><g><path d="M274.64,419.86c1.54-6.06,2.73-10.91,1.07-18.11-1.66-7.19-8.17-13.9-11.47-18.01-3.3-4.11-5.75-8.85-5.44-11.97-2.95,6.43-8.57,17.34-3.47,30.82,4.61,12.18,13.46,12.52,19.31,17.27Z" style="fill:#BA68C8;"></path><path d="M264.24,383.75c3.3,4.11,9.81,10.82,11.47,18.01,1.66,7.19,.47,12.05-1.07,18.11-2.21-4.13-10.55-11.45-14.64-26.93-1.45-5.48-2.71-13.64-1.2-21.17-.31,3.13,2.14,7.86,5.44,11.97Z" style="fill:#fff; opacity:.2;"></path></g><path d="M276.61,418.81c3.75,4.35,6.68,10.64,6.68,10.64l-1.79,8.5c-1.79-6.16-6.64-16.63-9.82-20.84-3.19-4.21-9.12-11.94-11.68-24.16,4.58,14.72,12.86,21.52,16.61,25.87Z" style="fill:#37474f;"></path></g><path d="M287.89,259.38c-1.53-5.51-2.68-11.1-3.63-16.75-.74-4.4-1.57-8.88-3.75-12.78-1.47-2.62-3.64-4.96-6.33-6.33-1.31-.67-2.72-1.13-4.19-1.11-.99,.01-2.61,.69-3.32-.33-.34-.48,.06-1.14,.48-1.55,1.42-1.39,3.3-2.25,5.25-2.64,1.95-.39,3.96-.32,5.92-.01,1.31,.2,2.62,.51,3.95,.47,1.21-.04,2.39-.37,3.54-.74,2.88-.92,5.55-2.24,8.35-3.38,1.75-.71,3.49-1.44,5.2-2.26,2.04-.98,4.01-2.1,5.98-3.21,5.49-3.1,10.96-6.24,16.57-9.12,2.59-1.33,5.26-2.89,8.06-3.67,2.84-.79,5.31-2.11,8.32-2.44,.66-.07,1.32-.12,1.99-.13,.56-.01,1.33,.21,1.27,.77-.03,.27-.26,.47-.48,.63-2.14,1.58-4.72,2.45-6.98,3.85-1.69,1.05-3.17,2.38-4.7,3.65-9.45,7.89-20.47,13.62-30.98,20.03-2.3,1.4-4.58,2.77-6.58,4.59-2.07,1.89-1.9,4.76-1.88,7.45,.04,5.58,1.35,10.91,2.89,16.23,1.48,5.09,2.48,10.15,4.64,15.08,1.7,3.87,3.8,7.29,7.92,8.69,2.59,.88,2.46,3.57,2.36,5.92-.2,4.76-1.47,9.37-2.5,13.99-1.01,4.54-1.4,9.04-1.59,13.65-.23,5.52,.62,11.03,.38,16.57-.25,5.84-.98,11.65-1.75,17.45-.76,5.74-.52,11.63-.63,17.41-.09,4.79-.18,9.59-.18,14.38,0,3.63,.06,7.34,1.24,10.77,.2,.58,.46,1.19,.97,1.54,1.22,.86,2.86-.26,3.82-1.4s2.17-2.53,3.63-2.22c1.67,.36,2.05,2.57,1.92,4.27-.8,10.63-6.31,20.55-6.96,31.18-.45,7.37,1.82,15.18,2.45,22.57,.02,.28,.07,5.74,.07,5.74,0,.1,.03,.2,.03,.31,0,2.1-1.39,4.21-4.17,5.81-5.56,3.21-14.58,3.21-20.14,0-2.78-1.61-4.17-3.71-4.17-5.81,0-.22,.02-.45,.05-.67,.59-5.69,1.61-11.36,2.26-17.05,1.69-14.97,2.58-29.95,2.58-44.95,0-13.13-1.77-27.25-10.47-37.7-4.92-5.9-11.22-10.42-17.12-15.27-5.36-4.4-10.45-9.14-15.22-14.18-3.45-3.64-6.77-7.47-10.75-10.53-3.98-3.06-8.77-5.34-13.79-5.35-1.83,0-3.82,.26-5.37-.72-2.67-1.69-2.02-5.64-3.31-8.21-1.8-3.59-4.34-6.84-7.42-9.4-4.3-3.57-9.39-6.05-14.14-8.99-2.82-1.71-5.45-3.46-8.4-4.95-3.16-1.59-6.36-3.11-9.6-4.54-1.4-.62-2.82-1.23-4.27-1.74-7.09-2.49-10.25-1.99-17.62-3.48-2.1-.42-2.45-2.55-.16-2.98,1.85-.35,3.75-.34,5.63-.3,5.55,.13,6.57-.04,12.08,.61,4.6,.55,8.75,1.9,12.74,4.25,4.12,2.42,9.29,4.68,13.51,6.94,5.92,3.18,11.46,5.6,15.97,10.58,2.78,3.07,4.8,6.4,7.97,9.15,2.93,2.55,6.42,4.37,9.9,6.04,3.77,1.81,7.74,3.32,11.3,5.53,3.45,2.14,5.68,5.6,8.64,8.28,3.3,2.98,6.58,5.99,9.97,8.86,6.6,5.59,13.72,10.74,21.83,13.9,2.81,1.1,5.8,1.95,8.82,1.73,9-.66,9.33-9.35,9.86-16.45,.64-8.51,.17-17.05-.11-25.56-.06-1.9,.22-3.72-.19-5.57-.49-2.24-1.13-4.45-1.79-6.64-1.32-4.4-2.84-8.73-4.24-13.1-.5-1.56-.97-3.13-1.4-4.71Z" style="fill:#455a64;"></path></g><g id="Bird-2"><g><path d="M203.28,113.79c-2.94-2.21-6.35-3.72-9.85-4.83-12.76-4.06-27.53,1.81-35.81,11.96-5,6.14-9.94,13.71-12.56,21.18-6.88,19.65-5.64,41.13-.04,61.28,.16,.58,5.01,1.55,5.71,1.76,1.93,.56,3.87,1.09,5.82,1.58,3.97,1,7.97,1.86,12.01,2.53,7.41,1.23,15.03,1.91,22.53,1.12,6.89-.73,14.18-2.84,18.95-8.16,4.27-4.76,5.99-11.69,5.17-17.97-.92-7.02-5.22-11.78-9.21-17.32-2.93-4.07-4.19-9.03-3.01-13.91,.92-3.8,2.68-6.8,4.57-10.23,1.75-3.18,2.51-6.82,2.43-10.43-.06-2.68,.25-5.37,.09-8.08-.25-4.28-3.52-7.99-6.82-10.47Z" style="fill:#BA68C8;"></path><path d="M196.72,159.43c2.61,1.76,5.21,3.53,7.82,5.29,.07,.04,.14,.09,.21,.13-1.98-3.63-2.72-7.77-1.74-11.85,.92-3.8,2.68-6.8,4.57-10.23,1.75-3.18,2.51-6.82,2.43-10.43-.04-2.04,.12-4.09,.13-6.14-4.53-3.28-10.13-5.03-15.66-4.31-1.84,.24-3.81,.86-4.83,2.41-1.6,2.43-.08,5.71-.64,8.57-.24,1.22-.86,2.33-1.35,3.48-2.64,6.18-1.22,13.87,3.45,18.7,1.65,1.71,3.63,3.05,5.6,4.38Z" style="fill:#fff; opacity:.3;"></path><path d="M193.44,108.96c-3.41-1.08-6.49-1.44-10.49-1.22-.26,.01-.29,.04-.26,.01-11.3,.98-19.23,5.61-25.9,12.98-8.85,9.77-14.08,12.25-16.43,13.63-4.28,2.5-1.35,5.25,2.91,4.29-2.89,4.4-5.36,4.95-4.26,7.15,1.1,2.2,4.01,1.48,4.01,1.48,0,0-3.02,9.57-2.66,25.26v.03c.01,.41,.01,.81,.03,1.23v-.03c.27,9.94,1.94,19.93,4.63,29.61,.78,.25,1.56,.5,2.34,.74-3.34-9.25-6.9-18.41-5.79-28.02,.93-8.04,5.18-15.45,10.83-21.24,5.65-5.79,12.66-10.1,19.89-13.72,2.17-1.08,4.4-2.14,6.17-3.79,1.78-1.65,3.06-4.03,2.74-6.43-.42-3.15-3.44-6.05-2.32-9.03,.33-.87,.98-1.58,1.72-2.14,3.13-2.38,7.42-2.18,11.33-2.54,3.59-.33,7.65-1.77,9.03-4.96-2.36-1.4-4.93-2.46-7.55-3.29Z" style="fill:#37474f;"></path><g><path d="M200.97,137.34c1.38,1.95,3.37,3.66,7.51,3.28,4.13-.39,8.76-3.65,12.16-4.78-.2-.13-3.19-1.7-7.62-1.46-4.43,.24-12.05,2.96-12.05,2.96Z" style="fill:#37474f;"></path><path d="M205.33,122.81c3.25-1.94,5.96-1.09,9.79,.93,3.84,2.02,7.92,8.11,7.68,10.7-.24,2.59-5.06,.72-9.01,1.06-3.95,.33-9.9,1.88-13.42,1.85-3.52-.03-3.61-1.89-1.88-2.76s3.79-2.33,4.13-4.86c.35-2.58-.54-4.98,2.71-6.92Z" style="fill:#455a64;"></path><path d="M209.49,123.94c-.74,.35-1.34,1.17-1.14,1.96,.17,.69,.84,1.14,1.5,1.41,1.69,.7,3.59,.72,5.32,1.31,1.11,.38,2.27,.75,3.21,1.51,.43,.35,1.63,1.42,1.66,.27,.02-.84-.74-1.58-1.23-2.2-1.04-1.31-2.07-2.33-3.45-3.27-1.7-1.15-3.88-1.93-5.87-1Z" style="fill:#fff; opacity:.2;"></path><path d="M205.33,122.81c2.41-1.76,5.58-1.4,8.14-.16,4.02,1.58,7.07,5.01,8.89,8.87,.51,1.23,1.38,3.29-.08,4.19-.73,.38-1.48,.34-2.18,.32-2.12-.12-4.18-.61-6.3-.53,2.1-.27,4.22,.09,6.31,.14,.68,0,1.41-.03,1.93-.34,1.08-.75,.21-2.57-.19-3.54-1.83-3.69-4.73-7.02-8.57-8.67-2.48-1.31-5.43-1.77-7.94-.28h0Z" style="fill:#37474f;"></path></g><g><path d="M193.58,122.4c-2.01-.76-3.86,.01-4.68,1.03-.82,1.01-1.14,1.61-1.76,2.15-.5,.43-.46,1.1-.05,1.57s.49,1.16,1.42,2.51c.73,1.07,2.61,1.83,4.49,1.32,1.57-.43,2.42-1.31,3.12-1.87s1-.46,1.21-.86c.16-.3-.03-.68-.46-1.47-.43-.79-.58-3.35-3.3-4.37Z" style="fill:#263238;"></path><path d="M195.4,125.33c.21,.97-.4,1.94-1.38,2.15-.97,.21-1.94-.4-2.15-1.38-.21-.97,.4-1.94,1.38-2.15,.97-.21,1.94,.4,2.15,1.38Z" style="fill:#455a64;"></path><circle cx="192.09" cy="124.8" r=".97" style="fill:#fafafa;"></circle></g></g><path d="M196.15,268.86c-.06-1.11-.62-2.3-1.75-2.63-1.2-.35-2.12-.39-3.34-.01-3.11,.95-7.27,3.59-6.29,7.47,.06,.24,.15,.47,.31,.65,.16,.18,.41,.3,.65,.25,.41-.09,.57-.57,.69-.97,.4-1.36,1-2.73,2.59-2.95,.08-.01,.18-.01,.23,.05,.04,.05,.03,.13,.02,.19-.07,.36-.27,.68-.44,1.01-.57,1.12-.8,2.41-.66,3.66,.03,.28,.08,.57,.24,.8,.16,.24,.43,.41,.71,.36,.42-.07,.62-.55,.75-.95,.36-1.12,.81-2.26,1.63-3.1,.83-.85,1.96-1.34,3.06-1.78,.58-.23,1.21-.5,1.47-1.06,.14-.3,.14-.64,.13-1Z" style="fill:#263238;"></path><g><path d="M195.06,266.16c10.84,7.31,13.04,13.57,10.76,28.34-2.28,14.76-6.41,24.82-2.28,33.32,4.13,8.5,11.02,10.96,11.02,10.96,0,0-.7,22.59,4.32,33.99,5.01,11.41,15.63,17.44,15.34-17.89,6.21-2.72,5.6-15.66,4.72-20.8,6.19-1.12,9.36-18.33-2.99-53.22-12.35-34.89-40.22-20.67-40.89-14.7Z" style="fill:#BA68C8;"></path><g style="opacity:.2;"><path d="M232.1,289.97c1.6,14.29,4.4,29.89,6.83,44.11-.06-14.84-2.72-29.62-6.83-44.11Zm-17.54,48.81c1.08-17.51,.96-35.04-.39-52.54-1.09,17.5-.95,35.05,.39,52.54Zm19.65,16.1c-.33-24.3-4.53-48.53-10.33-72.4,3.31,23.78,7.64,48.6,10.33,72.4Z"></path></g></g><path d="M207.23,250.52c-.92-2.79-1.66-5.65-2.32-8.49-3-12.78-4.95-25.81-5.83-38.92-.81-12.02-2.08-25.6,1.5-37.25,.26-.85,.57-1.74,1.23-2.35,1.38-1.27,3.59-.75,5.31,0,8.67,3.81,14.87,10.41,19.77,18.02,5.2,8.08,9.83,16.52,10.02,26.16,.03,1.32-.07,2.71-.79,3.81-.72,1.1-2.27,1.76-3.41,1.11,11.01,21.63,11.25,47.33,6.65,71.16-.45,2.35-1.3,5.1-3.6,5.79-1.48,.45-3.13-.2-4.25-1.27-1.12-1.07-1.8-2.52-2.39-3.95-1.9-4.57-3.16-9.42-3.72-14.34-4.11,4.16-12.24-6.99-13.86-9.73-1.81-3.07-3.19-6.37-4.3-9.76Z" style="fill:#BA68C8;"></path><path d="M207.23,250.52c-.92-2.79-1.66-5.65-2.32-8.49-3-12.78-4.95-25.81-5.83-38.92-.81-12.02-2.08-25.6,1.5-37.25,.26-.85,.57-1.74,1.23-2.35,1.38-1.27,3.59-.75,5.31,0,8.67,3.81,14.87,10.41,19.77,18.02,5.2,8.08,9.83,16.52,10.02,26.16,.03,1.32-.07,2.71-.79,3.81-.72,1.1-2.27,1.76-3.41,1.11,11.01,21.63,11.25,47.33,6.65,71.16-.45,2.35-1.3,5.1-3.6,5.79-1.48,.45-3.13-.2-4.25-1.27-1.12-1.07-1.8-2.52-2.39-3.95-1.9-4.57-3.16-9.42-3.72-14.34-4.11,4.16-12.24-6.99-13.86-9.73-1.81-3.07-3.19-6.37-4.3-9.76Z" style="fill:#fff; opacity:.2;"></path><path d="M206.75,173.79c9.32,11.76,17.63,23.89,25.09,36.91-5.1-14.09-13.93-26.93-25.09-36.91Zm18.65,96.22c1.84-15.15-.94-30.9-6.91-44.88,3.55,14.81,6.17,29.67,6.91,44.88Z" style="fill:#BA68C8; opacity:.6;"></path><path d="M224.54,252.78c-2.49-8.74-4.95-14.17-9.25-23.35-.93-1.98-3.17-6.58-4.94-8.85,1.96,.56,4.23,1.08,5.89-.1,2.22-1.59,1.76-4.99,.83-7.56-2.73-7.51-8.12-16.98-18.69-25.3-.05-.04-.1-.05-.15-.08,.11,5.29,.53,10.56,.86,15.56,.88,13.1,2.83,26.13,5.83,38.92,.67,2.84,1.41,5.69,2.32,8.49,1.11,3.39,2.49,6.69,4.3,9.76,.87,1.47,3.62,5.37,6.61,8.02,1.12-.24,2.18-.58,2.99-.96,5.34-2.51,4.87-9.39,3.4-14.55Z" style="fill:#BA68C8;"></path><path d="M209.8,282.89c-15.06-7.31-27.6-19.55-37.74-33.02-.36-.48-.72-.96-1.22-1.28-.59-.38-1.31-.49-2-.64-4.72-1.02-8.72-4.28-11.6-8.16-4.29-5.79-7.06-13.07-9.52-19.78-3.1-8.45-5.9-17.12-6.64-26.09-.71-8.52,.02-21.81,7.7-27.14,5.96-4.13,11.76-2.53,17.81,.84,9.96,5.54,19.25,12.26,27.64,19.98,7.61,7,16.33,15.42,20.12,25.24,.39,1.01,.74,2.1,.49,3.15-1.42,5.99-13.16-4.03-14.81-6.19,10.08,13.17,16.13,28.91,22.05,44.4,1,2.62,2.01,5.5,1.11,8.15-.9,2.65-4.69,4.35-6.59,2.29,3.52,4.08,6.38,8.73,8.44,13.71,1.08,2.6,1.74,6.06-.44,7.83-1.75,1.43-4.34,.87-6.48,.15-2.85-.97-5.63-2.12-8.32-3.43Z" style="fill:#BA68C8;"></path><path d="M209.8,282.89c-15.06-7.31-27.6-19.55-37.74-33.02-.36-.48-.72-.96-1.22-1.28-.59-.38-1.31-.49-2-.64-4.72-1.02-8.72-4.28-11.6-8.16-4.29-5.79-7.06-13.07-9.52-19.78-3.1-8.45-5.9-17.12-6.64-26.09-.71-8.52,.02-21.81,7.7-27.14,5.96-4.13,11.76-2.53,17.81,.84,9.96,5.54,19.25,12.26,27.64,19.98,7.61,7,16.33,15.42,20.12,25.24,.39,1.01,.74,2.1,.49,3.15-1.42,5.99-13.16-4.03-14.81-6.19,10.08,13.17,16.13,28.91,22.05,44.4,1,2.62,2.01,5.5,1.11,8.15-.9,2.65-4.69,4.35-6.59,2.29,3.52,4.08,6.38,8.73,8.44,13.71,1.08,2.6,1.74,6.06-.44,7.83-1.75,1.43-4.34,.87-6.48,.15-2.85-.97-5.63-2.12-8.32-3.43Z" style="fill:#fff; opacity:.2;"></path><path d="M156.94,213.7c-3.25-10.96-6.05-22.13-6.97-33.56-.5,11.56,1.99,23.05,5.2,34.09,2.5,8.29,5.72,16.38,9.84,24.01,1.42,2.51,2.92,4.98,4.62,7.31-.65-1.29-1.35-2.54-1.99-3.82-4.39-9-7.8-18.45-10.7-28.03Zm57.43,48.61c-1.09-1.52-2.19-3.03-3.31-4.53-16.63-22.46-30.9-46.75-46.62-69.84,14.59,26,29.96,52.07,49.93,74.36Zm-14.34-52.52c-9.72-13.59-21.92-25.89-36.6-34.06,13.25,10.31,24.88,22.06,36.6,34.06Z" style="fill:#BA68C8; opacity:.6;"></path></g><g><path d="M302.96,213.37c-.29-.44-.63-.86-1.05-1.17-.69-.51-1.39-.9-2.21-1.14-1.7-.5-3.9-.6-5.4,.5-.14,.11-.69,.06-.88,.09-.34,.06-.67,.14-.99,.24-.62,.2-1.21,.49-1.74,.87-1.05,.76-2.02,1.98-2.21,3.29-.02,.14-.03,.28,0,.41,.19,.79,1.59,.09,2.09,.05,.87-.07,1.75,.11,2.52,.53,1.21,.65,2.09,1.86,2.39,3.19,.08,.36,.41,1.09,.69,.55,.25-.48,.24-1.28,.24-1.81,0-1.22-.32-2.44-.94-3.49,.37-.16,.8,0,1.16,.19,1.47,.74,2.84,1.86,3.42,3.39,.17,.44,.27,.92,.54,1.31,.51,.76,1.14-.61,1.18-1.05,.03-.38,.08-.74,.04-1.12-.08-.83-.36-1.63-.72-2.37-.5-1.01-1.16-1.81-1.96-2.59,.34-.14,.72-.08,1.07,.01,.63,.16,1.22,.43,1.76,.78,.12,.08,1.32,1.12,1.36,.66,.05-.47-.1-.94-.36-1.34Z" style="fill:#263238;"></path><path d="M322.36,204.36c-.29-.44-.63-.86-1.05-1.17-.69-.51-1.39-.9-2.21-1.14-1.7-.5-3.9-.6-5.4,.5-.14,.11-.69,.06-.89,.09-.34,.06-.67,.14-.99,.24-.62,.2-1.21,.49-1.74,.87-1.05,.76-2.02,1.98-2.21,3.29-.02,.14-.03,.28,0,.41,.19,.79,1.59,.09,2.09,.05,.87-.07,1.75,.11,2.52,.53,1.21,.65,2.09,1.86,2.39,3.19,.08,.36,.41,1.09,.69,.55,.25-.48,.24-1.28,.24-1.81,0-1.22-.32-2.44-.94-3.49,.37-.16,.8,0,1.16,.19,1.47,.74,2.84,1.86,3.42,3.39,.17,.44,.27,.92,.54,1.31,.51,.76,1.14-.61,1.18-1.05,.03-.38,.08-.74,.04-1.12-.08-.83-.36-1.63-.72-2.37-.5-1.01-1.16-1.81-1.96-2.59,.34-.14,.72-.08,1.07,.01,.63,.16,1.22,.43,1.76,.78,.12,.08,1.32,1.12,1.36,.66,.05-.47-.1-.94-.36-1.34Z" style="fill:#263238;"></path></g></g></g><g id="Hearts_1"><g id="Hearts"><path d="M221.51,81.39c4.53-3.96,11.35-1.46,14.2,5.8-.03-7.8,5.39-12.64,11.06-10.62,5.67,2.02,7.47,16.51-7.27,30.49-18.85-7.56-22.51-21.7-17.99-25.67Z" style="fill:#BA68C8;"></path><g><path d="M246.6,46.28c3.59-1,6.72,2.23,6.36,7.04,2.07-4.36,6.39-5.6,9.01-2.96,2.62,2.64-.26,11.21-12.22,15.05-8.49-9.27-6.74-18.13-3.15-19.13Z" style="fill:#BA68C8;"></path><path d="M246.6,46.28c3.59-1,6.72,2.23,6.36,7.04,2.07-4.36,6.39-5.6,9.01-2.96,2.62,2.64-.26,11.21-12.22,15.05-8.49-9.27-6.74-18.13-3.15-19.13Z" style="fill:#fff; opacity:.5;"></path></g></g></g></svg>
